%TF.GenerationSoftware,KiCad,Pcbnew,9.0.0*%
%TF.CreationDate,2025-06-18T15:22:37+08:00*%
%TF.ProjectId,elec,656c6563-2e6b-4696-9361-645f70636258,1*%
%TF.SameCoordinates,Original*%
%TF.FileFunction,Soldermask,Bot*%
%TF.FilePolarity,Negative*%
%FSLAX46Y46*%
G04 Gerber Fmt 4.6, Leading zero omitted, Abs format (unit mm)*
G04 Created by KiCad (PCBNEW 9.0.0) date 2025-06-18 15:22:37*
%MOMM*%
%LPD*%
G01*
G04 APERTURE LIST*
G04 Aperture macros list*
%AMRoundRect*
0 Rectangle with rounded corners*
0 $1 Rounding radius*
0 $2 $3 $4 $5 $6 $7 $8 $9 X,Y pos of 4 corners*
0 Add a 4 corners polygon primitive as box body*
4,1,4,$2,$3,$4,$5,$6,$7,$8,$9,$2,$3,0*
0 Add four circle primitives for the rounded corners*
1,1,$1+$1,$2,$3*
1,1,$1+$1,$4,$5*
1,1,$1+$1,$6,$7*
1,1,$1+$1,$8,$9*
0 Add four rect primitives between the rounded corners*
20,1,$1+$1,$2,$3,$4,$5,0*
20,1,$1+$1,$4,$5,$6,$7,0*
20,1,$1+$1,$6,$7,$8,$9,0*
20,1,$1+$1,$8,$9,$2,$3,0*%
G04 Aperture macros list end*
%ADD10C,6.400000*%
%ADD11C,1.400000*%
%ADD12R,1.600000X1.600000*%
%ADD13C,1.600000*%
%ADD14RoundRect,0.750000X-0.750000X-0.750000X0.750000X-0.750000X0.750000X0.750000X-0.750000X0.750000X0*%
%ADD15C,3.000000*%
%ADD16C,1.000000*%
%ADD17RoundRect,0.250000X-0.600000X-0.750000X0.600000X-0.750000X0.600000X0.750000X-0.600000X0.750000X0*%
%ADD18O,1.700000X2.000000*%
%ADD19C,1.778000*%
%ADD20C,3.200000*%
%ADD21RoundRect,0.750000X0.750000X0.750000X-0.750000X0.750000X-0.750000X-0.750000X0.750000X-0.750000X0*%
%ADD22R,1.358000X1.358000*%
%ADD23C,1.358000*%
%ADD24C,1.530000*%
%ADD25RoundRect,1.500000X-1.500000X-1.500000X1.500000X-1.500000X1.500000X1.500000X-1.500000X1.500000X0*%
%ADD26C,6.000000*%
G04 APERTURE END LIST*
D10*
%TO.C,H3*%
X133500000Y-227250001D03*
%TD*%
%TO.C,H4*%
X263500000Y-227250000D03*
%TD*%
D11*
%TO.C,TP3*%
X217400000Y-61400001D03*
X219940000Y-61400001D03*
%TD*%
D10*
%TO.C,H2*%
X263500000Y-67250001D03*
%TD*%
D11*
%TO.C,TP4*%
X177150000Y-61400001D03*
X179690000Y-61400001D03*
%TD*%
D12*
%TO.C,C10*%
X230500709Y-168703357D03*
D13*
X230500709Y-165203357D03*
%TD*%
D12*
%TO.C,C9*%
X167250001Y-185547349D03*
D13*
X167250001Y-189047349D03*
%TD*%
D14*
%TO.C,U6*%
X153000001Y-187500001D03*
D15*
X158000001Y-187500001D03*
%TD*%
D16*
%TO.C,U7*%
X233750709Y-177750706D03*
X233750709Y-179750706D03*
X233750709Y-181550706D03*
X233750709Y-183550706D03*
X235750709Y-177750706D03*
X235750709Y-179750706D03*
X235750709Y-181550706D03*
X235750709Y-183550706D03*
X240000709Y-175150706D03*
X240000709Y-178150707D03*
X241200709Y-175150706D03*
X241200709Y-178150706D03*
X242400709Y-175150706D03*
X242400709Y-178150706D03*
X240000709Y-183150705D03*
X240000709Y-186150706D03*
X241200709Y-183150706D03*
X241200709Y-186150706D03*
X242400709Y-183150706D03*
X242400709Y-186150706D03*
%TD*%
D10*
%TO.C,H1*%
X133500000Y-67250000D03*
%TD*%
D17*
%TO.C,SW2*%
X178750001Y-221575001D03*
D18*
X181250001Y-221575001D03*
%TD*%
D19*
%TO.C,U3*%
X192150000Y-156140001D03*
X194690000Y-156140001D03*
X197230000Y-156140001D03*
X199770000Y-156140001D03*
X202310000Y-156140001D03*
X204850000Y-156140001D03*
X192150000Y-138360001D03*
X194690000Y-138360001D03*
X197230000Y-138360001D03*
X199770000Y-138360001D03*
X202310000Y-138360001D03*
X204850000Y-138360001D03*
D20*
X188340000Y-138360001D03*
X208660000Y-138360001D03*
X188340000Y-156140001D03*
X208660000Y-156140001D03*
%TD*%
D11*
%TO.C,TP5*%
X199790000Y-160235001D03*
X202330000Y-160235001D03*
%TD*%
D21*
%TO.C,U8*%
X244750708Y-166750706D03*
D15*
X239750708Y-166750706D03*
%TD*%
D22*
%TO.C,U9*%
X206120000Y-222806501D03*
D23*
X206120000Y-220266501D03*
X206120000Y-217726501D03*
X206120000Y-215186501D03*
X206120000Y-212646501D03*
X206120000Y-210106501D03*
X206120000Y-207566501D03*
X190880000Y-207566501D03*
X190880000Y-210106501D03*
X190880000Y-212646501D03*
X190880000Y-215186501D03*
X190880000Y-217726501D03*
X190880000Y-220266501D03*
X190880000Y-222806501D03*
%TD*%
D11*
%TO.C,TP2*%
X197250000Y-60250001D03*
X199790000Y-60250001D03*
%TD*%
D16*
%TO.C,U5*%
X164000001Y-176500001D03*
X164000001Y-174500001D03*
X164000001Y-172700001D03*
X164000001Y-170700001D03*
X162000001Y-176500001D03*
X162000001Y-174500001D03*
X162000001Y-172700001D03*
X162000001Y-170700001D03*
X157750001Y-179100001D03*
X157750001Y-176100000D03*
X156550001Y-179100001D03*
X156550001Y-176100001D03*
X155350001Y-179100001D03*
X155350001Y-176100001D03*
X157750001Y-171100002D03*
X157750001Y-168100001D03*
X156550001Y-171100001D03*
X156550001Y-168100001D03*
X155350001Y-171100001D03*
X155350001Y-168100001D03*
%TD*%
D24*
%TO.C,A1*%
X186630000Y-184740001D03*
X189170000Y-184740001D03*
X191710000Y-184740001D03*
X194250000Y-184740001D03*
X217110000Y-179660001D03*
X189170000Y-169500001D03*
X196790000Y-184740001D03*
X199330000Y-184740001D03*
X201870000Y-184740001D03*
X204410000Y-184740001D03*
X206950000Y-184740001D03*
X209490000Y-184740001D03*
X212030000Y-184740001D03*
X214570000Y-184740001D03*
X217110000Y-184740001D03*
X217110000Y-169500001D03*
X214570000Y-169500001D03*
X212030000Y-169500001D03*
X209490000Y-169500001D03*
X206950000Y-169500001D03*
X204410000Y-169500001D03*
X201870000Y-169500001D03*
X199330000Y-169500001D03*
X196790000Y-169500001D03*
X194250000Y-169500001D03*
X191710000Y-169500001D03*
X184090000Y-184740001D03*
X217110000Y-177120001D03*
X186630000Y-169500001D03*
X217110000Y-172040002D03*
X217110000Y-174580001D03*
X217110000Y-182200000D03*
X184090000Y-169500001D03*
%TD*%
D25*
%TO.C,J1*%
X194900000Y-67250001D03*
D26*
X202100000Y-67250001D03*
%TD*%
M02*
