M48
; DRILL file {KiCad 9.0.0} date 2025-06-18T15:22:37+0800
; FORMAT={-:-/ absolute / inch / decimal}
; #@! TF.CreationDate,2025-06-18T15:22:37+08:00
; #@! TF.GenerationSoftware,Kicad,Pcbnew,9.0.0
; #@! TF.FileFunction,Plated,1,2,PTH
FMAT,2
INCH
; #@! TA.AperFunction,Plated,PTH,ComponentDrill
T1C0.0079
; #@! TA.AperFunction,Plated,PTH,ViaDrill
T2C0.0118
; #@! TA.AperFunction,Plated,PTH,ComponentDrill
T3C0.0197
; #@! TA.AperFunction,Plated,PTH,ComponentDrill
T4C0.0315
; #@! TA.AperFunction,Plated,PTH,ComponentDrill
T5C0.0335
; #@! TA.AperFunction,Plated,PTH,ComponentDrill
T6C0.0394
; #@! TA.AperFunction,Plated,PTH,ComponentDrill
T7C0.0402
; #@! TA.AperFunction,Plated,PTH,ComponentDrill
T8C0.0709
; #@! TA.AperFunction,Plated,PTH,ComponentDrill
T9C0.0984
; #@! TA.AperFunction,Plated,PTH,ComponentDrill
T10C0.1260
; #@! TA.AperFunction,Plated,PTH,ComponentDrill
T11C0.1772
%
G90
G05
T1
X7.0512Y-3.1457
X7.0512Y-3.185
X7.0512Y-3.2244
X7.0512Y-3.2638
X7.0906Y-3.1457
X7.0906Y-3.185
X7.0906Y-3.2244
X7.0906Y-3.2638
X7.1299Y-3.1457
X7.1299Y-3.185
X7.1299Y-3.2244
X7.1299Y-3.2638
X8.6772Y-3.1417
X8.6772Y-3.1811
X8.6772Y-3.2205
X8.6772Y-3.2598
X8.7165Y-3.1417
X8.7165Y-3.1811
X8.7165Y-3.2205
X8.7165Y-3.2598
X8.7559Y-3.1417
X8.7559Y-3.1811
X8.7559Y-3.2205
X8.7559Y-3.2598
T2
X5.8465Y-6.8307
X5.8465Y-6.8012
X5.876Y-6.8996
X5.876Y-6.9291
X5.876Y-7.0965
X5.876Y-7.126
X5.876Y-6.8012
X5.876Y-6.8307
X5.876Y-6.9587
X5.876Y-7.0669
X5.876Y-7.1555
X5.876Y-6.8701
X5.9252Y-6.8346
X5.9272Y-6.9154
X5.9272Y-7.1122
X6.6417Y-7.1102
X6.6437Y-6.7165
X6.6929Y-7.0965
X6.6929Y-7.126
X6.6929Y-7.1555
X6.6929Y-7.0669
X6.7545Y-6.4469
X6.7545Y-6.4764
X6.7545Y-6.5059
X6.7545Y-6.5354
X6.7545Y-6.565
X6.7545Y-6.5945
X6.7687Y-6.8159
X6.7687Y-6.9931
X6.7687Y-7.2293
X6.7841Y-6.4469
X6.7841Y-6.4764
X6.7841Y-6.5059
X6.7841Y-6.5354
X6.7841Y-6.565
X6.7841Y-6.5945
X6.8136Y-6.4469
X6.8136Y-6.4764
X6.8136Y-6.5059
X6.8136Y-6.5354
X6.8136Y-6.565
X6.8136Y-6.5945
X6.8337Y-6.9341
X6.8337Y-7.1112
X6.8406Y-6.4469
X6.8406Y-6.4764
X6.8406Y-6.5059
X6.8406Y-6.5354
X6.8406Y-6.565
X6.8406Y-6.5945
X6.8504Y-3.2343
X6.8701Y-6.4469
X6.8701Y-6.4764
X6.8701Y-6.5059
X6.8701Y-6.5354
X6.8701Y-6.565
X6.8701Y-6.5945
X6.8898Y-6.6683
X6.8996Y-6.4469
X6.8996Y-6.4764
X6.8996Y-6.5059
X6.8996Y-6.5354
X6.8996Y-6.565
X6.8996Y-6.5945
X6.9134Y-3.1752
X7.2638Y-7.1703
X7.515Y-7.8004
X7.7657Y-5.5965
X7.9657Y-6.4665
X8.4793Y-3.2323
X8.4793Y-5.438
X8.4793Y-5.7431
X8.5404Y-3.1752
X8.7697Y-7.2786
X8.7722Y-7.3425
X8.7722Y-7.3721
X8.7722Y-7.4016
X8.7722Y-7.4311
X8.7722Y-7.4607
X8.7722Y-7.4902
X8.8018Y-7.3425
X8.8018Y-7.3721
X8.8018Y-7.4016
X8.8018Y-7.4311
X8.8018Y-7.4607
X8.8018Y-7.4902
X8.8258Y-7.0719
X8.8258Y-6.8357
X8.8258Y-7.0128
X8.8313Y-7.3425
X8.8313Y-7.3721
X8.8313Y-7.4016
X8.8313Y-7.4311
X8.8313Y-7.4607
X8.8313Y-7.4902
X8.8583Y-7.3425
X8.8583Y-7.3721
X8.8583Y-7.4016
X8.8583Y-7.4311
X8.8583Y-7.4607
X8.8583Y-7.4902
X8.8878Y-7.3425
X8.8878Y-7.3721
X8.8878Y-7.4016
X8.8878Y-7.4311
X8.8878Y-7.4607
X8.8878Y-7.4902
X8.8908Y-6.7175
X8.8908Y-7.1309
X8.8908Y-6.9538
X8.8962Y-3.1678
X8.9173Y-7.3425
X8.9173Y-7.3721
X8.9173Y-7.4016
X8.9173Y-7.4311
X8.9173Y-7.4607
X8.9173Y-7.4902
X8.9469Y-3.1398
X8.9469Y-3.1693
X8.9469Y-3.1988
X8.9469Y-3.2283
X8.9666Y-6.7914
X8.9666Y-6.8209
X8.9666Y-6.8504
X8.9666Y-6.8799
X8.9764Y-3.1398
X8.9764Y-3.1693
X8.9764Y-3.1988
X8.9764Y-3.2283
X9.0059Y-3.1398
X9.0059Y-3.1693
X9.0059Y-3.1988
X9.0059Y-3.2283
X9.0158Y-7.2303
X9.0177Y-6.8366
X9.7323Y-6.8347
X9.7323Y-7.0315
X9.7343Y-7.1122
X9.7835Y-6.7914
X9.7835Y-7.1457
X9.7835Y-6.8209
X9.7835Y-6.8799
X9.7835Y-6.9882
X9.7835Y-7.0177
X9.7835Y-7.0768
X9.7835Y-7.1162
X9.7835Y-6.8504
X9.7835Y-7.0473
X9.813Y-7.1162
X9.813Y-7.1457
T3
X6.1161Y-6.6181
X6.1161Y-6.7362
X6.1161Y-6.9331
X6.1161Y-7.0512
X6.1634Y-6.6181
X6.1634Y-6.7362
X6.1634Y-6.9331
X6.1634Y-7.0512
X6.2106Y-6.6181
X6.2106Y-6.7362
X6.2106Y-6.9331
X6.2106Y-7.0512
X6.378Y-6.7205
X6.378Y-6.7992
X6.378Y-6.8701
X6.378Y-6.9488
X6.4567Y-6.7205
X6.4567Y-6.7992
X6.4567Y-6.8701
X6.4567Y-6.9488
X9.2028Y-6.9981
X9.2028Y-7.0768
X9.2028Y-7.1477
X9.2028Y-7.2264
X9.2815Y-6.9981
X9.2815Y-7.0768
X9.2815Y-7.1477
X9.2815Y-7.2264
X9.4488Y-6.8957
X9.4488Y-7.0138
X9.4488Y-7.2107
X9.4488Y-7.3288
X9.4961Y-6.8957
X9.4961Y-7.0138
X9.4961Y-7.2107
X9.4961Y-7.3288
X9.5433Y-6.8957
X9.5433Y-7.0138
X9.5433Y-7.2107
X9.5433Y-7.3288
T4
X6.5846Y-7.305
X6.5846Y-7.4428
X6.9744Y-2.4173
X7.0744Y-2.4173
X7.7657Y-2.372
X7.8657Y-2.372
X7.8657Y-6.3085
X7.9657Y-6.3085
X8.5591Y-2.4173
X8.6591Y-2.4173
X9.0748Y-6.5041
X9.0748Y-6.6419
T5
X7.515Y-8.1719
X7.515Y-8.2719
X7.515Y-8.3719
X7.515Y-8.4719
X7.515Y-8.5719
X7.515Y-8.6719
X7.515Y-8.7719
X8.115Y-8.1719
X8.115Y-8.2719
X8.115Y-8.3719
X8.115Y-8.4719
X8.115Y-8.5719
X8.115Y-8.6719
X8.115Y-8.7719
T6
X7.0374Y-8.7234
X7.1358Y-8.7234
X7.565Y-5.4472
X7.565Y-6.1472
X7.665Y-5.4472
X7.665Y-6.1472
X7.765Y-5.4472
X7.765Y-6.1472
X7.865Y-5.4472
X7.865Y-6.1472
X7.965Y-5.4472
X7.965Y-6.1472
X8.065Y-5.4472
X8.065Y-6.1472
T7
X7.2476Y-6.6732
X7.2476Y-7.2732
X7.3476Y-6.6732
X7.3476Y-7.2732
X7.4476Y-6.6732
X7.4476Y-7.2732
X7.5476Y-6.6732
X7.5476Y-7.2732
X7.6476Y-6.6732
X7.6476Y-7.2732
X7.7476Y-6.6732
X7.7476Y-7.2732
X7.8476Y-6.6732
X7.8476Y-7.2732
X7.9476Y-6.6732
X7.9476Y-7.2732
X8.0476Y-6.6732
X8.0476Y-7.2732
X8.1476Y-6.6732
X8.1476Y-7.2732
X8.2476Y-6.6732
X8.2476Y-7.2732
X8.3476Y-6.6732
X8.3476Y-7.2732
X8.4476Y-6.6732
X8.4476Y-7.2732
X8.5476Y-6.6732
X8.5476Y-6.7732
X8.5476Y-6.8732
X8.5476Y-6.9732
X8.5476Y-7.0732
X8.5476Y-7.1732
X8.5476Y-7.2732
T8
X6.0236Y-7.3819
X6.2205Y-7.3819
X9.439Y-6.565
X9.6359Y-6.565
T9
X7.415Y-5.4472
X7.415Y-6.1472
X8.215Y-5.4472
X8.215Y-6.1472
T10
X5.2559Y-2.6476
X5.2559Y-8.9469
X10.374Y-2.6476
X10.374Y-8.9469
T11
X7.6732Y-2.6476
X7.9567Y-2.6476
M30
