999
"DXF R12 Output" (www.mydxf.blogspot.com)
 0 
SECTION
 2 
HEADER
 9 
$ACADVER
 1 
AC1009
 9 
$EXTMIN
 10 
 0 
 20 
 0 
 9 
$EXTMAX
 10 
 8.5 
 20 
 11 
 0 
ENDSEC
 0 
SECTION
 2 
ENTITIES
0
LINE
8
Layer 1
10
0.793749
20
297.793749
11
-0.793749
21
296.206251
0
LINE
8
Layer 1
10
0.000000
20
298.322915
11
0.000000
21
295.677085
0
LINE
8
Layer 1
10
2.116664
20
295.941668
11
1.058332
21
294.883336
0
LINE
8
Layer 1
10
1.587498
20
296.470834
11
0.529166
21
295.412502
0
LINE
8
Layer 1
10
1.058332
20
297.000000
11
0.000000
21
295.941668
0
LINE
8
0
10
133.187280
20
193.356211
11
133.049239
21
194.036811
0
LINE
8
0
10
133.049239
20
194.036811
11
132.674082
21
194.592482
0
LINE
8
0
10
132.674082
20
194.592482
11
132.118025
21
194.967068
0
LINE
8
0
10
132.118025
20
194.967068
11
131.437283
21
195.104409
0
LINE
8
0
10
131.437283
20
195.104409
11
130.756541
21
194.967068
0
LINE
8
0
10
130.756541
20
194.967068
11
130.200485
21
194.592482
0
LINE
8
0
10
130.200485
20
194.592482
11
129.825328
21
194.036811
0
LINE
8
0
10
129.825328
20
194.036811
11
129.687286
21
193.356211
0
LINE
8
0
10
129.687286
20
193.356211
11
129.825328
21
192.675611
0
LINE
8
0
10
129.825328
20
192.675611
11
130.200485
21
192.119940
0
LINE
8
0
10
130.200485
20
192.119940
11
130.756541
21
191.745355
0
LINE
8
0
10
130.756541
20
191.745355
11
131.437283
21
191.608014
0
LINE
8
0
10
131.437283
20
191.608014
11
132.118025
21
191.745355
0
LINE
8
0
10
132.118025
20
191.745355
11
132.674082
21
192.119940
0
LINE
8
0
10
132.674082
20
192.119940
11
133.049239
21
192.675611
0
LINE
8
0
10
133.049239
20
192.675611
11
133.187280
21
193.356211
0
LINE
8
0
10
133.187280
20
193.356211
11
133.187280
21
193.356211
0
LINE
8
0
10
118.387301
20
70.856367
11
98.387324
21
70.856367
0
LINE
8
0
10
98.387324
20
70.856367
11
96.372334
21
71.059933
0
LINE
8
0
10
96.372334
20
71.059933
11
94.495616
21
71.642878
0
LINE
8
0
10
94.495616
20
71.642878
11
92.797358
21
72.565003
0
LINE
8
0
10
92.797358
20
72.565003
11
91.317752
21
73.786109
0
LINE
8
0
10
91.317752
20
73.786109
11
90.096986
21
75.265996
0
LINE
8
0
10
90.096986
20
75.265996
11
89.175252
21
76.964465
0
LINE
8
0
10
89.175252
20
76.964465
11
88.592739
21
78.841318
0
LINE
8
0
10
88.592739
20
78.841318
11
88.389637
21
80.856354
0
LINE
8
0
10
88.389637
20
80.856354
11
88.592739
21
82.871391
0
LINE
8
0
10
88.592739
20
82.871391
11
89.175252
21
84.748243
0
LINE
8
0
10
89.175252
20
84.748243
11
90.096986
21
86.446713
0
LINE
8
0
10
90.096986
20
86.446713
11
91.317752
21
87.926600
0
LINE
8
0
10
91.317752
20
87.926600
11
92.797358
21
89.147706
0
LINE
8
0
10
92.797358
20
89.147706
11
94.495616
21
90.069831
0
LINE
8
0
10
94.495616
20
90.069831
11
96.372334
21
90.652776
0
LINE
8
0
10
96.372334
20
90.652776
11
98.387324
21
90.856342
0
LINE
8
0
10
98.387324
20
90.856342
11
118.387301
21
90.856342
0
LINE
8
0
10
118.387301
20
90.856342
11
120.402290
21
90.652776
0
LINE
8
0
10
120.402290
20
90.652776
11
122.279009
21
90.069831
0
LINE
8
0
10
122.279009
20
90.069831
11
123.977266
21
89.147706
0
LINE
8
0
10
123.977266
20
89.147706
11
125.456873
21
87.926600
0
LINE
8
0
10
125.456873
20
87.926600
11
126.677638
21
86.446713
0
LINE
8
0
10
126.677638
20
86.446713
11
127.599373
21
84.748243
0
LINE
8
0
10
127.599373
20
84.748243
11
128.181886
21
82.871391
0
LINE
8
0
10
128.181886
20
82.871391
11
128.384988
21
80.856354
0
LINE
8
0
10
128.384988
20
80.856354
11
128.181886
21
78.841318
0
LINE
8
0
10
128.181886
20
78.841318
11
127.599373
21
76.964465
0
LINE
8
0
10
127.599373
20
76.964465
11
126.677638
21
75.265996
0
LINE
8
0
10
126.677638
20
75.265996
11
125.456873
21
73.786109
0
LINE
8
0
10
125.456873
20
73.786109
11
123.977266
21
72.565003
0
LINE
8
0
10
123.977266
20
72.565003
11
122.279009
21
71.642878
0
LINE
8
0
10
122.279009
20
71.642878
11
120.402290
21
71.059933
0
LINE
8
0
10
120.402290
20
71.059933
11
118.387301
21
70.856367
0
LINE
8
0
10
118.387301
20
70.856367
11
118.387301
21
70.856367
0
LINE
8
0
10
87.087338
20
193.356211
11
86.949335
21
194.036854
0
LINE
8
0
10
86.949335
20
194.036854
11
86.574187
21
194.592569
0
LINE
8
0
10
86.574187
20
194.592569
11
86.018115
21
194.967187
0
LINE
8
0
10
86.018115
20
194.967187
11
85.337341
21
195.104542
0
LINE
8
0
10
85.337341
20
195.104542
11
84.656567
21
194.967187
0
LINE
8
0
10
84.656567
20
194.967187
11
84.100496
21
194.592569
0
LINE
8
0
10
84.100496
20
194.592569
11
83.725347
21
194.036854
0
LINE
8
0
10
83.725347
20
194.036854
11
83.587344
21
193.356211
0
LINE
8
0
10
83.587344
20
193.356211
11
83.725347
21
192.675568
0
LINE
8
0
10
83.725347
20
192.675568
11
84.100496
21
192.119853
0
LINE
8
0
10
84.100496
20
192.119853
11
84.656567
21
191.745235
0
LINE
8
0
10
84.656567
20
191.745235
11
85.337341
21
191.607880
0
LINE
8
0
10
85.337341
20
191.607880
11
86.018115
21
191.745235
0
LINE
8
0
10
86.018115
20
191.745235
11
86.574187
21
192.119853
0
LINE
8
0
10
86.574187
20
192.119853
11
86.949335
21
192.675568
0
LINE
8
0
10
86.949335
20
192.675568
11
87.087338
21
193.356211
0
LINE
8
0
10
87.087338
20
193.356211
11
87.087338
21
193.356211
0
LINE
8
0
10
87.087338
20
133.356288
11
86.949335
21
134.036931
0
LINE
8
0
10
86.949335
20
134.036931
11
86.574187
21
134.592645
0
LINE
8
0
10
86.574187
20
134.592645
11
86.018115
21
134.967264
0
LINE
8
0
10
86.018115
20
134.967264
11
85.337341
21
135.104619
0
LINE
8
0
10
85.337341
20
135.104619
11
84.656567
21
134.967264
0
LINE
8
0
10
84.656567
20
134.967264
11
84.100496
21
134.592645
0
LINE
8
0
10
84.100496
20
134.592645
11
83.725347
21
134.036931
0
LINE
8
0
10
83.725347
20
134.036931
11
83.587344
21
133.356288
0
LINE
8
0
10
83.587344
20
133.356288
11
83.725347
21
132.675645
0
LINE
8
0
10
83.725347
20
132.675645
11
84.100496
21
132.119930
0
LINE
8
0
10
84.100496
20
132.119930
11
84.656567
21
131.745311
0
LINE
8
0
10
84.656567
20
131.745311
11
85.337341
21
131.607957
0
LINE
8
0
10
85.337341
20
131.607957
11
86.018115
21
131.745311
0
LINE
8
0
10
86.018115
20
131.745311
11
86.574187
21
132.119930
0
LINE
8
0
10
86.574187
20
132.119930
11
86.949335
21
132.675645
0
LINE
8
0
10
86.949335
20
132.675645
11
87.087338
21
133.356288
0
LINE
8
0
10
87.087338
20
133.356288
11
87.087338
21
133.356288
0
LINE
8
0
10
133.187280
20
133.356288
11
133.049239
21
134.036888
0
LINE
8
0
10
133.049239
20
134.036888
11
132.674082
21
134.592559
0
LINE
8
0
10
132.674082
20
134.592559
11
132.118025
21
134.967144
0
LINE
8
0
10
132.118025
20
134.967144
11
131.437283
21
135.104485
0
LINE
8
0
10
131.437283
20
135.104485
11
130.756541
21
134.967144
0
LINE
8
0
10
130.756541
20
134.967144
11
130.200485
21
134.592559
0
LINE
8
0
10
130.200485
20
134.592559
11
129.825328
21
134.036888
0
LINE
8
0
10
129.825328
20
134.036888
11
129.687286
21
133.356288
0
LINE
8
0
10
129.687286
20
133.356288
11
129.825328
21
132.675688
0
LINE
8
0
10
129.825328
20
132.675688
11
130.200485
21
132.120016
0
LINE
8
0
10
130.200485
20
132.120016
11
130.756541
21
131.745431
0
LINE
8
0
10
130.756541
20
131.745431
11
131.437283
21
131.608090
0
LINE
8
0
10
131.437283
20
131.608090
11
132.118025
21
131.745431
0
LINE
8
0
10
132.118025
20
131.745431
11
132.674082
21
132.120016
0
LINE
8
0
10
132.674082
20
132.120016
11
133.049239
21
132.675688
0
LINE
8
0
10
133.049239
20
132.675688
11
133.187280
21
133.356288
0
LINE
8
0
10
133.187280
20
133.356288
11
133.187280
21
133.356288
0
LINE
8
0
10
118.387301
20
239.856155
11
118.387301
21
226.856171
0
LINE
8
0
10
118.387301
20
226.856171
11
98.387324
21
226.856171
0
LINE
8
0
10
98.387324
20
226.856171
11
98.387324
21
239.856155
0
LINE
8
0
10
98.387324
20
239.856155
11
118.387301
21
239.856155
0
LINE
8
0
10
175.137227
20
235.856160
11
174.999186
21
236.536760
0
LINE
8
0
10
174.999186
20
236.536760
11
174.624029
21
237.092431
0
LINE
8
0
10
174.624029
20
237.092431
11
174.067972
21
237.467016
0
LINE
8
0
10
174.067972
20
237.467016
11
173.387230
21
237.604357
0
LINE
8
0
10
173.387230
20
237.604357
11
172.706488
21
237.467016
0
LINE
8
0
10
172.706488
20
237.467016
11
172.150431
21
237.092431
0
LINE
8
0
10
172.150431
20
237.092431
11
171.775274
21
236.536760
0
LINE
8
0
10
171.775274
20
236.536760
11
171.637233
21
235.856160
0
LINE
8
0
10
171.637233
20
235.856160
11
171.775274
21
235.175560
0
LINE
8
0
10
171.775274
20
235.175560
11
172.150431
21
234.619888
0
LINE
8
0
10
172.150431
20
234.619888
11
172.706488
21
234.245303
0
LINE
8
0
10
172.706488
20
234.245303
11
173.387230
21
234.107962
0
LINE
8
0
10
173.387230
20
234.107962
11
174.067972
21
234.245303
0
LINE
8
0
10
174.067972
20
234.245303
11
174.624029
21
234.619888
0
LINE
8
0
10
174.624029
20
234.619888
11
174.999186
21
235.175560
0
LINE
8
0
10
174.999186
20
235.175560
11
175.137227
21
235.856160
0
LINE
8
0
10
175.137227
20
235.856160
11
175.137227
21
235.856160
0
LINE
8
0
10
45.137391
20
75.856361
11
44.999389
21
76.537004
0
LINE
8
0
10
44.999389
20
76.537004
11
44.624240
21
77.092719
0
LINE
8
0
10
44.624240
20
77.092719
11
44.068169
21
77.467338
0
LINE
8
0
10
44.068169
20
77.467338
11
43.387395
21
77.604692
0
LINE
8
0
10
43.387395
20
77.604692
11
42.706621
21
77.467338
0
LINE
8
0
10
42.706621
20
77.467338
11
42.150549
21
77.092719
0
LINE
8
0
10
42.150549
20
77.092719
11
41.775401
21
76.537004
0
LINE
8
0
10
41.775401
20
76.537004
11
41.637398
21
75.856361
0
LINE
8
0
10
41.637398
20
75.856361
11
41.775401
21
75.175718
0
LINE
8
0
10
41.775401
20
75.175718
11
42.150549
21
74.620004
0
LINE
8
0
10
42.150549
20
74.620004
11
42.706621
21
74.245385
0
LINE
8
0
10
42.706621
20
74.245385
11
43.387395
21
74.108030
0
LINE
8
0
10
43.387395
20
74.108030
11
44.068169
21
74.245385
0
LINE
8
0
10
44.068169
20
74.245385
11
44.624240
21
74.620004
0
LINE
8
0
10
44.624240
20
74.620004
11
44.999389
21
75.175718
0
LINE
8
0
10
44.999389
20
75.175718
11
45.137391
21
75.856361
0
LINE
8
0
10
45.137391
20
75.856361
11
45.137391
21
75.856361
0
LINE
8
0
10
45.137391
20
235.856160
11
44.999389
21
236.536803
0
LINE
8
0
10
44.999389
20
236.536803
11
44.624240
21
237.092518
0
LINE
8
0
10
44.624240
20
237.092518
11
44.068169
21
237.467136
0
LINE
8
0
10
44.068169
20
237.467136
11
43.387395
21
237.604491
0
LINE
8
0
10
43.387395
20
237.604491
11
42.706621
21
237.467136
0
LINE
8
0
10
42.706621
20
237.467136
11
42.150549
21
237.092518
0
LINE
8
0
10
42.150549
20
237.092518
11
41.775401
21
236.536803
0
LINE
8
0
10
41.775401
20
236.536803
11
41.637398
21
235.856160
0
LINE
8
0
10
41.637398
20
235.856160
11
41.775401
21
235.175517
0
LINE
8
0
10
41.775401
20
235.175517
11
42.150549
21
234.619802
0
LINE
8
0
10
42.150549
20
234.619802
11
42.706621
21
234.245184
0
LINE
8
0
10
42.706621
20
234.245184
11
43.387395
21
234.107829
0
LINE
8
0
10
43.387395
20
234.107829
11
44.068169
21
234.245184
0
LINE
8
0
10
44.068169
20
234.245184
11
44.624240
21
234.619802
0
LINE
8
0
10
44.624240
20
234.619802
11
44.999389
21
235.175517
0
LINE
8
0
10
44.999389
20
235.175517
11
45.137391
21
235.856160
0
LINE
8
0
10
45.137391
20
235.856160
11
45.137391
21
235.856160
0
LINE
8
0
10
175.137227
20
75.856361
11
174.999186
21
76.536961
0
LINE
8
0
10
174.999186
20
76.536961
11
174.624029
21
77.092633
0
LINE
8
0
10
174.624029
20
77.092633
11
174.067972
21
77.467218
0
LINE
8
0
10
174.067972
20
77.467218
11
173.387230
21
77.604559
0
LINE
8
0
10
173.387230
20
77.604559
11
172.706488
21
77.467218
0
LINE
8
0
10
172.706488
20
77.467218
11
172.150431
21
77.092633
0
LINE
8
0
10
172.150431
20
77.092633
11
171.775274
21
76.536961
0
LINE
8
0
10
171.775274
20
76.536961
11
171.637233
21
75.856361
0
LINE
8
0
10
171.637233
20
75.856361
11
171.775274
21
75.175761
0
LINE
8
0
10
171.775274
20
75.175761
11
172.150431
21
74.620090
0
LINE
8
0
10
172.150431
20
74.620090
11
172.706488
21
74.245505
0
LINE
8
0
10
172.706488
20
74.245505
11
173.387230
21
74.108164
0
LINE
8
0
10
173.387230
20
74.108164
11
174.067972
21
74.245505
0
LINE
8
0
10
174.067972
20
74.245505
11
174.624029
21
74.620090
0
LINE
8
0
10
174.624029
20
74.620090
11
174.999186
21
75.175761
0
LINE
8
0
10
174.999186
20
75.175761
11
175.137227
21
75.856361
0
LINE
8
0
10
175.137227
20
75.856361
11
175.137227
21
75.856361
0
LINE
8
0
10
173.387230
20
245.856146
11
43.387395
21
245.856146
0
LINE
8
0
10
43.387395
20
245.856146
11
41.372048
21
245.652982
0
LINE
8
0
10
41.372048
20
245.652982
11
39.494948
21
245.070298
0
LINE
8
0
10
39.494948
20
245.070298
11
37.796306
21
244.148306
0
LINE
8
0
10
37.796306
20
244.148306
11
36.316335
21
242.927218
0
LINE
8
0
10
36.316335
20
242.927218
11
35.095248
21
241.447248
0
LINE
8
0
10
35.095248
20
241.447248
11
34.173255
21
239.748606
0
LINE
8
0
10
34.173255
20
239.748606
11
33.590570
21
237.871506
0
LINE
8
0
10
33.590570
20
237.871506
11
33.387406
21
235.856160
0
LINE
8
0
10
33.387406
20
235.856160
11
33.387406
21
75.856361
0
LINE
8
0
10
33.387406
20
75.856361
11
33.581328
21
73.896350
0
LINE
8
0
10
33.581328
20
73.896350
11
34.148610
21
72.029531
0
LINE
8
0
10
34.148610
20
72.029531
11
35.067521
21
70.308362
0
LINE
8
0
10
35.067521
20
70.308362
11
36.316335
21
68.785301
0
LINE
8
0
10
36.316335
20
68.785301
11
37.839396
21
67.536488
0
LINE
8
0
10
37.839396
20
67.536488
11
39.560564
21
66.617576
0
LINE
8
0
10
39.560564
20
66.617576
11
41.427383
21
66.050295
0
LINE
8
0
10
41.427383
20
66.050295
11
43.387395
21
65.856373
0
LINE
8
0
10
43.387395
20
65.856373
11
173.387230
21
65.856373
0
LINE
8
0
10
173.387230
20
65.856373
11
175.347241
21
66.050295
0
LINE
8
0
10
175.347241
20
66.050295
11
177.214060
21
66.617576
0
LINE
8
0
10
177.214060
20
66.617576
11
178.935229
21
67.536488
0
LINE
8
0
10
178.935229
20
67.536488
11
180.458290
21
68.785301
0
LINE
8
0
10
180.458290
20
68.785301
11
181.707103
21
70.308362
0
LINE
8
0
10
181.707103
20
70.308362
11
182.626015
21
72.029531
0
LINE
8
0
10
182.626015
20
72.029531
11
183.193296
21
73.896350
0
LINE
8
0
10
183.193296
20
73.896350
11
183.387219
21
75.856361
0
LINE
8
0
10
183.387219
20
75.856361
11
183.387219
21
235.856160
0
LINE
8
0
10
183.387219
20
235.856160
11
183.184054
21
237.871506
0
LINE
8
0
10
183.184054
20
237.871506
11
182.601369
21
239.748606
0
LINE
8
0
10
182.601369
20
239.748606
11
181.679377
21
241.447248
0
LINE
8
0
10
181.679377
20
241.447248
11
180.458289
21
242.927218
0
LINE
8
0
10
180.458289
20
242.927218
11
178.978318
21
244.148306
0
LINE
8
0
10
178.978318
20
244.148306
11
177.279676
21
245.070298
0
LINE
8
0
10
177.279676
20
245.070298
11
175.402576
21
245.652982
0
LINE
8
0
10
175.402576
20
245.652982
11
173.387230
21
245.856146
0
LINE
8
0
10
173.387230
20
245.856146
11
173.387230
21
245.856146
 0 
ENDSEC
 0 
EOF