<?xml version="1.0" encoding="UTF-8" standalone="no"?>
<svg
   viewBox="0 0 793.7007874015749 1122.5196850393702"
   width="793.7007874015749"
   height="1122.5196850393702"
   version="1.1"
   id="svg15"
   sodipodi:docname="lazercut.svg"
   inkscape:version="1.3.2 (091e20e, 2023-11-25, custom)"
   xmlns:inkscape="http://www.inkscape.org/namespaces/inkscape"
   xmlns:sodipodi="http://sodipodi.sourceforge.net/DTD/sodipodi-0.dtd"
   xmlns="http://www.w3.org/2000/svg"
   xmlns:svg="http://www.w3.org/2000/svg">
  <sodipodi:namedview
     id="namedview15"
     pagecolor="#505050"
     bordercolor="#eeeeee"
     borderopacity="1"
     inkscape:showpageshadow="0"
     inkscape:pageopacity="0"
     inkscape:pagecheckerboard="0"
     inkscape:deskcolor="#505050"
     showgrid="false"
     inkscape:zoom="0.36213174"
     inkscape:cx="4.1421389"
     inkscape:cy="457.016"
     inkscape:window-width="1920"
     inkscape:window-height="1009"
     inkscape:window-x="-8"
     inkscape:window-y="-8"
     inkscape:window-maximized="1"
     inkscape:current-layer="g15" />
  <desc
     id="desc1">lazercut.dxf - scale = 1.000000, origin = (0.000000, 0.000000), method = manual</desc>
  <defs
     id="defs4">
    <marker
       id="DistanceX"
       orient="auto"
       refX="0.0"
       refY="0.0"
       style="overflow:visible">
      <path
         d="M 3,-3 L -3,3 M 0,-5 L  0,5"
         style="stroke:#000000; stroke-width:0.5"
         id="path1" />
    </marker>
    <pattern
       id="Hatch"
       patternUnits="userSpaceOnUse"
       width="8"
       height="8"
       x="0"
       y="0">
      <path
         d="M8 4 l-4,4"
         stroke="#000000"
         stroke-width="0.25"
         linecap="square"
         id="path2" />
      <path
         d="M6 2 l-4,4"
         stroke="#000000"
         stroke-width="0.25"
         linecap="square"
         id="path3" />
      <path
         d="M4 0 l-4,4"
         stroke="#000000"
         stroke-width="0.25"
         linecap="square"
         id="path4" />
    </pattern>
    <symbol
       id="*MODEL_SPACE" />
    <symbol
       id="*PAPER_SPACE" />
  </defs>
  <g
     inkscape:groupmode="layer"
     inkscape:label="0"
     id="g15">
    <path
       d="m 503.38563,391.72505 a 6.6141735,6.6141735 0 0 0 -13.22834,0 6.6141735,6.6141735 0 0 0 13.22834,0 z"
       style="fill:none;stroke:#000000"
       id="path5" />
    <path
       d="m 447.44863,854.71717 h -75.59056 a 37.795276,37.795276 0 0 1 0,-75.59055 h 75.59056 a 37.795276,37.795276 0 0 1 0,75.59055 z"
       style="fill:none;stroke:#000000"
       id="path6" />
    <path
       d="m 329.14941,391.72505 a 6.614173,6.614173 0 0 0 -13.22834,0 6.614173,6.614173 0 0 0 13.22834,0 z"
       style="fill:none;stroke:#000000"
       id="path7" />
    <path
       d="m 329.14941,618.4967 a 6.614173,6.614173 0 0 0 -13.22834,0 6.614173,6.614173 0 0 0 13.22834,0 z"
       style="fill:none;stroke:#000000"
       id="path8" />
    <path
       d="m 503.38563,618.4967 a 6.6141735,6.6141735 0 0 0 -13.22834,0 6.6141735,6.6141735 0 0 0 13.22834,0 z"
       style="fill:none;stroke:#000000"
       id="path9" />
    <path
       d="m 447.44863,215.97701 v 49.13386 h -75.59056 v -49.13386 z"
       style="fill:none;stroke:#000000"
       id="path10" />
    <path
       d="m 661.93681,231.09512 a 6.6141735,6.6141735 0 0 0 -13.22834,0 6.6141735,6.6141735 0 0 0 13.22834,0 z"
       style="fill:none;stroke:#000000"
       id="path11" />
    <path
       d="m 170.59823,835.81953 a 6.614173,6.614173 0 0 0 -13.22834,0 6.614173,6.614173 0 0 0 13.22834,0 z"
       style="fill:none;stroke:#000000"
       id="path12" />
    <path
       d="m 170.59823,231.09512 a 6.614173,6.614173 0 0 0 -13.22834,0 6.614173,6.614173 0 0 0 13.22834,0 z"
       style="fill:none;stroke:#000000"
       id="path13" />
    <path
       d="m 661.93681,835.81953 a 6.6141735,6.6141735 0 0 0 -13.22834,0 6.6141735,6.6141735 0 0 0 13.22834,0 z"
       style="fill:none;stroke:#000000"
       id="path14" />
    <path
       d="M 655.32264,193.29985 H 163.98406 a 37.795276,37.795276 0 0 0 -37.79528,37.79527 v 604.72441 a 37.795276,37.795276 0 0 0 37.79528,37.79528 h 491.33858 a 37.795276,37.795276 0 0 0 37.79528,-37.79528 V 231.09512 a 37.795276,37.795276 0 0 0 -37.79528,-37.79527 z"
       style="fill:none;stroke:#000000"
       id="path15" />
  </g>
</svg>
